<?xml version="1.0" encoding="UTF-8"?>
<svg width="266px" height="59px" viewBox="0 0 266 59" version="1.1" xmlns="http://www.w3.org/2000/svg" xmlns:xlink="http://www.w3.org/1999/xlink">
    <!-- Generator: Sketch 47.1 (45422) - http://www.bohemiancoding.com/sketch -->
    <title>logo copy 10</title>
    <desc>Created with Sketch.</desc>
    <defs>
        <linearGradient x1="26.2181713%" y1="59.4220633%" x2="80.9751157%" y2="59.4220638%" id="linearGradient-1">
            <stop stop-color="#FF3B87" offset="0%"></stop>
            <stop stop-color="#FF7400" offset="100%"></stop>
        </linearGradient>
        <linearGradient x1="0%" y1="50%" x2="100%" y2="50%" id="linearGradient-2">
            <stop stop-color="#FF7400" offset="0%"></stop>
            <stop stop-color="#FF7400" offset="100%"></stop>
        </linearGradient>
    </defs>
    <g id="Page-1" stroke="none" stroke-width="1" fill="none" fill-rule="evenodd">
        <g id="logo-copy-10">
            <g id="Group-2" transform="translate(-2.000000, -13.000000)">
                <path d="M6.48,69.28 C3.8399868,68.6079966 2.52,67.6000067 2.52,66.256 L2.52,20.608 C2.52,19.5519947 3.93598584,18.520005 6.768,17.512 C9.60001416,16.503995 12.5759844,16 15.696,16 C19.9200211,16 22.032,17.103989 22.032,19.312 L22.032,27.448 L21.24,32.416 L21.816,32.416 C22.1040014,31.9839978 22.643996,31.4560031 23.436,30.832 C24.228004,30.2079969 25.0559957,29.6800022 25.92,29.248 C28.0320106,28.1439945 30.3599873,27.592 32.904,27.592 C35.4480127,27.592 37.4519927,27.9159968 38.916,28.564 C40.3800073,29.2120032 41.5559956,30.0519948 42.444,31.084 C43.3320044,32.1160052 44.0399974,33.4239921 44.568,35.008 C45.4800046,37.7440137 45.936,41.1519796 45.936,45.232 C45.936,52.0000338 45.1680077,57.183982 43.632,60.784 C42.0959923,64.384018 39.6000173,66.9279926 36.144,68.416 C32.6879827,69.9040074 27.8160314,70.648 21.528,70.648 C15.2399686,70.648 10.2240187,70.1920046 6.48,69.28 Z M21.96,60.064 L24.192,60.064 C25.7280077,60.064 26.496,56.3800368 26.496,49.012 C26.496,41.6439632 25.7040079,37.96 24.12,37.96 L21.96,37.96 L21.96,60.064 Z M64.296,70.648 C59.9279782,70.648 56.4960125,69.6160103 54,67.552 C52.991995,66.6879957 52.1160037,65.4160084 51.372,63.736 C50.6279963,62.0559916 50.256,60.0880113 50.256,57.832 C50.256,55.5759887 50.7959946,53.6080084 51.876,51.928 C52.9560054,50.2479916 54.2639923,48.9520046 55.8,48.04 C57.3360077,47.1279954 59.1359897,46.3840029 61.2,45.808 C64.3200156,44.9919959 67.7519813,44.584 71.496,44.584 L73.872,44.584 C73.872,42.6159902 73.2000067,41.2240041 71.856,40.408 C71.2799971,40.0719983 70.4040059,39.904 69.228,39.904 C68.0519941,39.904 66.6360083,40.2159969 64.98,40.84 C63.3239917,41.4640031 61.9440055,42.0999968 60.84,42.748 C59.7359945,43.3960032 58.9920019,43.72 58.608,43.72 C57.7439957,43.72 56.5680074,42.5800114 55.08,40.3 C53.5919926,38.0199886 52.848,35.9440094 52.848,34.072 C52.848,33.4479969 53.7359911,32.632005 55.512,31.624 C57.2880089,30.615995 59.7959838,29.6920042 63.036,28.852 C66.2760162,28.0119958 69.4319846,27.592 72.504,27.592 C75.5760154,27.592 78.2279888,27.8439975 80.46,28.348 C82.6920112,28.8520025 84.5159929,29.4639964 85.932,30.184 C87.3480071,30.9040036 88.5479951,31.863994 89.532,33.064 C90.5160049,34.264006 91.2599975,35.3439952 91.764,36.304 C92.2680025,37.2640048 92.6399988,38.5119923 92.88,40.048 C93.2160017,41.8240089 93.384,44.007987 93.384,46.6 L93.384,68.272 C93.384,68.8000026 92.1000128,69.2199984 89.532,69.532 C86.9639872,69.8440016 84.4200126,70 81.9,70 C79.3799874,70 77.7480037,69.9280007 77.004,69.784 C76.2599963,69.6399993 75.8160007,69.472001 75.672,69.28 C75.5279993,69.087999 75.4080005,68.7520024 75.312,68.272 L74.736,64.168 L74.16,64.168 C72.959994,68.4880216 69.6720269,70.648 64.296,70.648 Z M73.944,58.696 L73.944,50.272 C72.6959938,50.272 71.6880038,50.7999947 70.92,51.856 C70.1519962,52.9120053 69.768,54.1119933 69.768,55.456 C69.768,58.6240158 70.4879928,60.208 71.928,60.208 C72.5520031,60.208 73.0439982,60.0520016 73.404,59.74 C73.7640018,59.4279984 73.944,59.0800019 73.944,58.696 Z M117.864,47.248 L117.864,68.272 C117.864,68.8000026 116.508014,69.2199984 113.796,69.532 C111.083986,69.8440016 108.276015,70 105.372,70 C102.467985,70 100.584004,69.8680013 99.72,69.604 C98.8559957,69.3399987 98.424,68.8960031 98.424,68.272 L98.424,32.776 C98.424,31.8639954 99.7559867,30.8800053 102.42,29.824 C105.084013,28.7679947 107.987984,28.24 111.132,28.24 C114.276016,28.24 116.039998,29.1039914 116.424,30.832 L117.144,34.144 L117.648,34.144 C118.320003,32.3199909 119.927987,30.7720064 122.472,29.5 C125.016013,28.2279936 127.559987,27.592 130.104,27.592 C132.648013,27.592 134.435995,27.9999959 135.468,28.816 C136.500005,29.6320041 137.016,30.6759936 137.016,31.948 C137.016,33.2200064 136.920001,34.8399902 136.728,36.808 C136.535999,38.7760098 136.068004,40.9119885 135.324,43.216 C134.579996,45.5200115 133.608006,46.672 132.408,46.672 C131.927998,46.672 130.416013,46.3120036 127.872,45.592 C125.327987,44.8719964 123.228008,44.512 121.572,44.512 C119.915992,44.512 118.884002,44.7519976 118.476,45.232 C118.067998,45.7120024 117.864,46.3839957 117.864,47.248 Z M160.056,68.272 C160.056,68.8000026 158.712013,69.2199984 156.024,69.532 C153.335987,69.8440016 150.528015,70 147.6,70 C144.671985,70 142.776004,69.8680013 141.912,69.604 C141.047996,69.3399987 140.616,68.8960031 140.616,68.272 L140.616,18.448 C140.616,17.3919947 141.971986,16.360005 144.684,15.352 C147.396014,14.343995 150.311984,13.84 153.432,13.84 C157.848022,13.84 160.056,14.943989 160.056,17.152 L160.056,44.08 L160.992,44.08 C163.296012,33.087945 164.999994,27.592 166.104,27.592 C168.888014,27.592 172.24798,28.2399935 176.184,29.536 C180.12002,30.8320065 182.088,32.2719921 182.088,33.856 C182.088,35.0080058 181.12801,37.2159837 179.208,40.48 C177.28799,43.7440163 175.29601,46.4079897 173.232,48.472 C180.096034,56.680041 183.528,61.5519923 183.528,63.088 C183.528,64.5280072 181.344022,66.2799897 176.976,68.344 C172.607978,70.4080103 169.536009,71.44 167.76,71.44 C166.895996,71.44 165.984005,70.3960104 165.024,68.308 C164.063995,66.2199896 163.032006,63.0880209 161.928,58.912 L160.056,61.144 L160.056,68.272 Z M248.848,47.248 L248.848,68.272 C248.848,68.8000026 247.492014,69.2199984 244.78,69.532 C242.067986,69.8440016 239.260015,70 236.356,70 C233.451985,70 231.568004,69.8680013 230.704,69.604 C229.839996,69.3399987 229.408,68.8960031 229.408,68.272 L229.408,32.776 C229.408,31.8639954 230.739987,30.8800053 233.404,29.824 C236.068013,28.7679947 238.971984,28.24 242.116,28.24 C245.260016,28.24 247.023998,29.1039914 247.408,30.832 L248.128,34.144 L248.632,34.144 C249.304003,32.3199909 250.911987,30.7720064 253.456,29.5 C256.000013,28.2279936 258.543987,27.592 261.088,27.592 C263.632013,27.592 265.419995,27.9999959 266.452,28.816 C267.484005,29.6320041 268,30.6759936 268,31.948 C268,33.2200064 267.904001,34.8399902 267.712,36.808 C267.519999,38.7760098 267.052004,40.9119885 266.308,43.216 C265.563996,45.5200115 264.592006,46.672 263.392,46.672 C262.911998,46.672 261.400013,46.3120036 258.856,45.592 C256.311987,44.8719964 254.212008,44.512 252.556,44.512 C250.899992,44.512 249.868002,44.7519976 249.46,45.232 C249.051998,45.7120024 248.848,46.3839957 248.848,47.248 Z" id="bark-r" fill="url(#linearGradient-1)"></path>
                <path d="M212.126503,46.9949319 C211.541583,46.0155002 211.206897,44.8788657 211.206897,43.6666667 C211.206897,39.9847683 214.294588,37 218.103448,37 C221.912309,37 225,39.9847683 225,43.6666667 C225,45.8474653 223.916768,47.7836949 222.242052,49 C223.916768,50.2163051 225,52.1525347 225,54.3333333 C225,58.0152317 221.912309,61 218.103448,61 C214.760533,61 211.973135,58.7008288 211.341187,55.6490878 C207.555425,56.2864927 203.332425,56.2643773 198.672189,55.5827414 C198.067164,58.6674441 195.26365,61 191.896552,61 C188.087691,61 185,58.0152317 185,54.3333333 C185,52.1525347 186.083232,50.2163051 187.757948,49 C186.083232,47.7836949 185,45.8474653 185,43.6666667 C185,39.9847683 188.087691,37 191.896552,37 C195.705412,37 198.793103,39.9847683 198.793103,43.6666667 C198.793103,44.4359906 198.658298,45.1748785 198.410274,45.8624614 C203.082228,47.5115207 207.654304,47.8890108 212.126503,46.9949319 Z" id="Combined-Shape" stroke="url(#linearGradient-2)" stroke-width="2.5" fill="#FFFFFF"></path>
            </g>
        </g>
    </g>
</svg>